<?xml version="1.0" encoding="iso-8859-1"?>
<!-- Generator: Adobe Illustrator 17.1.0, SVG Export Plug-In . SVG Version: 6.00 Build 0)  -->
<!DOCTYPE svg PUBLIC "-//W3C//DTD SVG 1.1//EN" "http://www.w3.org/Graphics/SVG/1.1/DTD/svg11.dtd">
<svg version="1.1" id="Layer_1" xmlns="http://www.w3.org/2000/svg" xmlns:xlink="http://www.w3.org/1999/xlink" x="0px" y="0px"
	 viewBox="0 0 32 32" style="enable-background:new 0 0 32 32;" xml:space="preserve">
<g>
	<path d="M16,28c-0.552,0-1-0.448-1-1V15c0-0.552,0.448-1,1-1s1,0.448,1,1v12C17,27.552,16.552,28,16,28z"/>
</g>
<g>
	<path d="M7,27c-0.552,0-1-0.448-1-1v-5c0-0.552,0.448-1,1-1s1,0.448,1,1v5C8,26.552,7.552,27,7,27z"/>
</g>
<g>
	<path d="M25,25c-0.552,0-1-0.448-1-1v-3c0-0.552,0.448-1,1-1s1,0.448,1,1v3C26,24.552,25.552,25,25,25z"/>
</g>
<path d="M21.521,5.697C21.43,5.417,21.17,5.23,20.876,5.23c-0.001,0-0.001,0-0.002,0l-3.237,0.007l-0.991-3.082
	C16.556,1.875,16.295,1.684,16,1.684c-0.295,0-0.556,0.19-0.646,0.471l-0.992,3.083L11.126,5.23c0,0-0.001,0-0.002,0
	c-0.294,0-0.554,0.187-0.645,0.467c-0.091,0.28,0.009,0.586,0.248,0.759l2.624,1.895l-1.009,3.075
	c-0.092,0.28,0.008,0.587,0.246,0.76c0.119,0.086,0.259,0.13,0.399,0.13c0.141,0,0.281-0.044,0.401-0.131L16,10.275l2.613,1.91
	c0.119,0.087,0.26,0.131,0.4,0.131c0.14,0,0.28-0.043,0.399-0.13c0.238-0.173,0.338-0.48,0.246-0.761L18.65,8.35l2.624-1.895
	C21.512,6.283,21.612,5.977,21.521,5.697z"/>
<path d="M11.155,13.036c-0.067-0.207-0.26-0.346-0.478-0.346h-0.001L8.28,12.695l-0.734-2.281c-0.067-0.208-0.26-0.349-0.478-0.349
	c-0.218,0-0.411,0.141-0.478,0.348l-0.734,2.282L3.461,12.69c0,0-0.001,0-0.001,0c-0.217,0-0.41,0.139-0.478,0.346
	c-0.067,0.207,0.007,0.434,0.184,0.562L5.107,15l-0.747,2.276c-0.068,0.207,0.006,0.435,0.182,0.563
	c0.088,0.064,0.192,0.096,0.295,0.096c0.104,0,0.208-0.032,0.296-0.097l1.934-1.414l1.934,1.413
	c0.088,0.065,0.192,0.097,0.296,0.097c0.104,0,0.207-0.032,0.295-0.096c0.176-0.128,0.25-0.356,0.182-0.563l-0.747-2.276
	l1.942-1.403C11.148,13.469,11.222,13.243,11.155,13.036z"/>
<path d="M29.087,13.036c-0.067-0.207-0.26-0.346-0.478-0.346c-0.001,0-0.001,0-0.001,0l-2.396,0.005l-0.734-2.281
	c-0.067-0.208-0.26-0.349-0.478-0.349c-0.218,0-0.411,0.141-0.478,0.348l-0.734,2.282l-2.396-0.005c0,0-0.001,0-0.001,0
	c-0.217,0-0.41,0.139-0.478,0.346c-0.067,0.207,0.007,0.434,0.184,0.562L23.039,15l-0.747,2.276
	c-0.068,0.207,0.006,0.435,0.182,0.563c0.088,0.064,0.192,0.096,0.295,0.096c0.104,0,0.208-0.032,0.296-0.097L25,16.424l1.934,1.413
	c0.088,0.065,0.192,0.097,0.296,0.097c0.104,0,0.207-0.032,0.295-0.096c0.176-0.128,0.25-0.356,0.182-0.563l-0.747-2.276
	l1.942-1.403C29.08,13.469,29.154,13.243,29.087,13.036z"/>
</svg>
