<svg width="200" height="200" viewBox="0 0 200 200" fill="none" xmlns="http://www.w3.org/2000/svg">
<path d="M76.6667 66.6667H70V73.3334H76.6667V66.6667Z" fill="#303235"/>
<path d="M76.6667 80H70V86.6667H76.6667V80Z" fill="#303235"/>
<path d="M76.6667 93.3333H70V99.9999H76.6667V93.3333Z" fill="#303235"/>
<path d="M76.6667 106.667H70V113.333H76.6667V106.667Z" fill="#303235"/>
<path d="M90 66.6667H83.3334V73.3334H90V66.6667Z" fill="#303235"/>
<path d="M90 80H83.3334V86.6667H90V80Z" fill="#303235"/>
<path d="M90 93.3333H83.3334V99.9999H90V93.3333Z" fill="#303235"/>
<path d="M90 106.667H83.3334V113.333H90V106.667Z" fill="#303235"/>
<path d="M103.333 66.6667H96.6666V73.3334H103.333V66.6667Z" fill="#303235"/>
<path d="M103.333 80H96.6666V86.6667H103.333V80Z" fill="#303235"/>
<path d="M103.333 93.3333H96.6666V99.9999H103.333V93.3333Z" fill="#303235"/>
<path d="M103.333 106.667H96.6666V113.333H103.333V106.667Z" fill="#303235"/>
<path d="M116.667 66.6667H110V73.3334H116.667V66.6667Z" fill="#303235"/>
<path d="M90 53.3333H83.3334V59.9999H90V53.3333Z" fill="#303235"/>
<path d="M103.333 53.3333H96.6666V59.9999H103.333V53.3333Z" fill="#303235"/>
<path d="M116.667 53.3333H110V59.9999H116.667V53.3333Z" fill="#303235"/>
<path d="M116.667 80H110V86.6667H116.667V80Z" fill="#303235"/>
<path d="M116.667 93.3333H110V99.9999H116.667V93.3333Z" fill="#303235"/>
<path d="M116.667 106.667H110V113.333H116.667V106.667Z" fill="#303235"/>
<path d="M130 66.6667H123.333V73.3334H130V66.6667Z" fill="#303235"/>
<path d="M130 80H123.333V86.6667H130V80Z" fill="#303235"/>
<path d="M130 93.3333H123.333V99.9999H130V93.3333Z" fill="#303235"/>
<path d="M130 106.667H123.333V113.333H130V106.667Z" fill="#303235"/>
<path d="M196.67 50C196.669 50 196.668 50 196.667 50H146.667V3.33333C146.668 1.49333 145.177 0.00125079 143.337 7.85479e-07C143.336 7.85479e-07 143.335 7.85479e-07 143.333 7.85479e-07H56.6667C54.8267 -0.00124921 53.3346 1.48958 53.3333 3.32958C53.3333 3.33083 53.3333 3.33208 53.3333 3.33333V50H3.33333C1.49333 49.9987 0.00125079 51.4896 7.85479e-07 53.3296C7.85479e-07 53.3308 7.85479e-07 53.3321 7.85479e-07 53.3333V173.333C-0.00124921 175.173 1.48958 176.665 3.32958 176.667C3.33083 176.667 3.33208 176.667 3.33333 176.667H10.3013C10.1079 177.768 10.0071 178.882 10 180V196.667C9.99875 198.507 11.4896 199.999 13.3296 200C13.3308 200 13.3321 200 13.3333 200H186.667C188.507 200.001 189.999 198.51 190 196.67C190 196.669 190 196.668 190 196.667V180C189.993 178.882 189.893 177.768 189.699 176.667H196.667C198.507 176.668 199.999 175.177 200 173.337C200 173.336 200 173.335 200 173.333V53.3333C200.001 51.4933 198.51 50.0012 196.67 50ZM143.333 143.333C143.333 147.015 140.349 150 136.667 150C132.985 150 130 147.015 130 143.333C130 139.651 132.985 136.667 136.667 136.667C140.347 136.671 143.329 139.653 143.333 143.333ZM63.3333 136.667C67.0154 136.667 70 139.651 70 143.333C70 147.015 67.0154 150 63.3333 150C59.6512 150 56.6667 147.015 56.6667 143.333C56.6712 139.653 59.6533 136.671 63.3333 136.667ZM43.3333 193.333H16.6667V180C16.6667 172.636 22.6362 166.667 30 166.667C37.3638 166.667 43.3333 172.636 43.3333 180V193.333ZM23.3333 153.333C23.3333 149.651 26.3179 146.667 30 146.667C33.6821 146.667 36.6667 149.651 36.6667 153.333C36.6667 157.015 33.6821 160 30 160C26.32 159.995 23.3379 157.013 23.3333 153.333ZM43.8383 165.594C42.5812 164.381 41.1717 163.338 39.645 162.49C44.7292 157.163 44.5329 148.723 39.2062 143.639C33.8796 138.554 25.4396 138.751 20.355 144.077C15.4371 149.23 15.4371 157.337 20.355 162.49C17.1733 164.255 14.53 166.851 12.7058 170H6.66667V56.6667H53.3333V134.607C48.7558 139.743 48.9104 147.54 53.6883 152.49C48.6883 155.255 45.1054 160.022 43.8383 165.594ZM76.6667 193.333H50V170C50 162.636 55.9696 156.667 63.3333 156.667C70.6971 156.667 76.6667 162.636 76.6667 170V193.333ZM116.667 193.333H83.3333V170C83.3333 160.795 90.7954 153.333 100 153.333C109.205 153.333 116.667 160.795 116.667 170V193.333ZM90 136.667C90 131.144 94.4771 126.667 100 126.667C105.523 126.667 110 131.144 110 136.667C110 142.19 105.523 146.667 100 146.667C94.4796 146.661 90.0058 142.187 90 136.667ZM120.301 158.54C118.069 154.605 114.748 151.398 110.737 149.306C117.778 143.376 118.677 132.862 112.748 125.821C106.818 118.781 96.3033 117.881 89.2629 123.81C82.2225 129.74 81.3225 140.255 87.2521 147.295C87.8637 148.022 88.5362 148.694 89.2629 149.306C85.2521 151.398 81.9313 154.605 79.6992 158.54C77.9467 156.04 75.6483 153.971 72.9783 152.49C78.0887 147.262 77.9937 138.881 72.7654 133.77C69.3992 130.48 64.5387 129.225 60 130.473V6.66667H140V130.473C138.914 130.174 137.793 130.015 136.667 130C129.322 129.98 123.353 135.918 123.333 143.263C123.324 146.7 124.646 150.007 127.022 152.49C124.352 153.971 122.053 156.04 120.301 158.54ZM150 180V193.333H123.333V170C123.333 162.636 129.303 156.667 136.667 156.667C144.03 156.667 150 162.636 150 170V180ZM183.333 193.333H156.667V180C156.667 172.636 162.636 166.667 170 166.667C177.364 166.667 183.333 172.636 183.333 180V193.333ZM163.333 153.333C163.333 149.651 166.318 146.667 170 146.667C173.682 146.667 176.667 149.651 176.667 153.333C176.667 157.015 173.682 160 170 160C166.32 159.995 163.338 157.013 163.333 153.333ZM193.333 170H187.294C185.47 166.851 182.827 164.256 179.645 162.49C184.729 157.163 184.533 148.723 179.206 143.639C173.88 138.555 165.44 138.751 160.355 144.077C155.437 149.23 155.437 157.337 160.355 162.49C158.828 163.337 157.418 164.381 156.162 165.593C154.895 160.022 151.312 155.255 146.312 152.49C151.09 147.539 151.245 139.742 146.667 134.606V56.6667H193.334V170H193.333Z" fill="#303235"/>
<path d="M163.333 76.6667H156.667V130H163.333V76.6667Z" fill="#303235"/>
<path d="M183.333 76.6667H176.667V130H183.333V76.6667Z" fill="#303235"/>
<path d="M23.3333 76.6667H16.6666V130H23.3333V76.6667Z" fill="#303235"/>
<path d="M43.3333 76.6667H36.6666V130H43.3333V76.6667Z" fill="#303235"/>
<path d="M120.004 13.3333C120.002 13.3333 120.001 13.3333 120 13.3333H80C78.16 13.332 76.6679 14.8228 76.6666 16.6628C76.6666 16.6641 76.6666 16.6653 76.6666 16.6666V43.3333C76.6654 45.1733 78.1562 46.6653 79.9962 46.6666C79.9975 46.6666 79.9987 46.6666 80 46.6666H120C121.84 46.6678 123.332 45.177 123.333 43.337C123.333 43.3358 123.333 43.3345 123.333 43.3333V16.6666C123.335 14.8266 121.844 13.3345 120.004 13.3333ZM116.667 39.9999H83.3333V19.9999H116.667V39.9999Z" fill="#303235"/>
</svg>
