<svg width="158" height="188" viewBox="0 0 158 188" fill="none" xmlns="http://www.w3.org/2000/svg">
<path d="M116.5 106.5H97.75V100.25H138.375C140.861 100.25 143.246 99.2623 145.004 97.5041C146.762 95.746 147.75 93.3614 147.75 90.875V9.625C147.75 7.1386 146.762 4.75403 145.004 2.99587C143.246 1.23772 140.861 0.25 138.375 0.25H19.625C17.1386 0.25 14.754 1.23772 12.9959 2.99587C11.2377 4.75403 10.25 7.1386 10.25 9.625V90.875C10.25 93.3614 11.2377 95.746 12.9959 97.5041C14.754 99.2623 17.1386 100.25 19.625 100.25H60.25V106.5H41.5C30.7294 106.512 20.4035 110.797 12.7875 118.412C5.17151 126.028 0.887406 136.354 0.875 147.125V184.625C0.875 185.454 1.20424 186.249 1.79029 186.835C2.37634 187.421 3.1712 187.75 4 187.75H154C154.829 187.75 155.624 187.421 156.21 186.835C156.796 186.249 157.125 185.454 157.125 184.625V147.125C157.113 136.354 152.828 126.028 145.213 118.412C137.597 110.797 127.271 106.512 116.5 106.5ZM100.781 135.384L106.441 112.75H109.534L95.2094 181.5H94.2125L88.5125 141.616L92.9313 134.984L95.9125 137.153C96.3262 137.454 96.8073 137.648 97.3137 137.72C97.8201 137.791 98.3362 137.737 98.8169 137.562C99.2975 137.388 99.728 137.098 100.07 136.718C100.413 136.338 100.657 135.88 100.781 135.384ZM83.5938 137.75H74.4375L70.125 131.306L79 124.853L87.875 131.306L83.5938 137.75ZM75.4688 144H82.55L87.9062 181.5H70.1031L75.4688 144ZM95.8531 129.372L84.3125 120.988L95.6406 112.75H99.9969L95.8531 129.372ZM19.625 6.5H138.375C139.204 6.5 139.999 6.82924 140.585 7.41529C141.171 8.00134 141.5 8.7962 141.5 9.625V19H16.5V9.625C16.5 8.7962 16.8292 8.00134 17.4153 7.41529C18.0013 6.82924 18.7962 6.5 19.625 6.5ZM16.5 90.875V25.25H141.5V90.875C141.5 91.7038 141.171 92.4987 140.585 93.0847C139.999 93.6708 139.204 94 138.375 94H19.625C18.7962 94 18.0013 93.6708 17.4153 93.0847C16.8292 92.4987 16.5 91.7038 16.5 90.875ZM91.5 100.25V108.034L79 117.125L66.5 108.034V100.25H91.5ZM62.3594 112.75L73.6875 120.988L62.1562 129.372L58.0031 112.75H62.3594ZM57.2188 135.384C57.343 135.88 57.587 136.338 57.9295 136.718C58.272 137.098 58.7025 137.388 59.1831 137.562C59.6638 137.737 60.1799 137.791 60.6863 137.72C61.1927 137.648 61.6738 137.454 62.0875 137.153L65.0687 134.984L69.4875 141.616L63.7875 181.5H62.7906L48.4656 112.75H51.5594L57.2188 135.384ZM7.125 147.125C7.13575 138.011 10.7608 129.274 17.2051 122.83C23.6493 116.386 32.3865 112.761 41.5 112.75H42.0844L56.4094 181.5H38.375V144C38.375 143.171 38.0458 142.376 37.4597 141.79C36.8737 141.204 36.0788 140.875 35.25 140.875C34.4212 140.875 33.6263 141.204 33.0403 141.79C32.4542 142.376 32.125 143.171 32.125 144V181.5H7.125V147.125ZM150.875 181.5H125.875V147.125C125.875 146.296 125.546 145.501 124.96 144.915C124.374 144.329 123.579 144 122.75 144C121.921 144 121.126 144.329 120.54 144.915C119.954 145.501 119.625 146.296 119.625 147.125V181.5H101.591L115.916 112.75H116.5C125.614 112.761 134.351 116.386 140.795 122.83C147.239 129.274 150.864 138.011 150.875 147.125V181.5Z" fill="#303235"/>
<path d="M32.125 37.75C31.2962 37.75 30.5013 38.0792 29.9153 38.6653C29.3292 39.2513 29 40.0462 29 40.875V84.625C29 85.4538 29.3292 86.2487 29.9153 86.8347C30.5013 87.4208 31.2962 87.75 32.125 87.75C32.9538 87.75 33.7487 87.4208 34.3347 86.8347C34.9208 86.2487 35.25 85.4538 35.25 84.625V40.875C35.25 40.0462 34.9208 39.2513 34.3347 38.6653C33.7487 38.0792 32.9538 37.75 32.125 37.75Z" fill="#303235"/>
<path d="M42.8907 46.5999L52.2657 52.8499C52.6071 53.0777 52.9901 53.2359 53.3927 53.3157C53.7953 53.3955 54.2097 53.3951 54.6122 53.3148C55.0146 53.2344 55.3973 53.0755 55.7384 52.8472C56.0795 52.6189 56.3723 52.3257 56.6001 51.9843C56.8278 51.6428 56.9861 51.2599 57.0659 50.8573C57.1456 50.4547 57.1453 50.0403 57.0649 49.6378C56.9845 49.2353 56.8257 48.8526 56.5974 48.5115C56.3691 48.1704 56.0759 47.8777 55.7344 47.6499L50.2501 43.9999L55.7251 40.3499C56.0665 40.1221 56.3597 39.8294 56.588 39.4883C56.8163 39.1472 56.9752 38.7645 57.0556 38.362C57.1359 37.9595 57.1363 37.5451 57.0565 37.1425C56.9767 36.7399 56.8184 36.357 56.5907 36.0155C56.3629 35.6741 56.0701 35.3809 55.7291 35.1526C55.388 34.9243 55.0053 34.7654 54.6028 34.685C54.2003 34.6047 53.7859 34.6043 53.3833 34.6841C52.9807 34.7639 52.5977 34.9221 52.2563 35.1499L42.8813 41.3999C42.4533 41.6853 42.1024 42.0719 41.8597 42.5255C41.617 42.979 41.49 43.4855 41.49 43.9999C41.49 44.5143 41.617 45.0208 41.8597 45.4743C42.1024 45.9279 42.4533 46.3145 42.8813 46.5999H42.8907Z" fill="#303235"/>
<path d="M76.4 51.9843C76.6277 52.3258 76.9205 52.619 77.2616 52.8473C77.6027 53.0757 77.9854 53.2345 78.3879 53.3149C78.7904 53.3953 79.2048 53.3956 79.6074 53.3158C80.01 53.236 80.393 53.0777 80.7344 52.8499L90.1094 46.5999C90.5374 46.3145 90.8883 45.9279 91.131 45.4743C91.3737 45.0208 91.5007 44.5143 91.5007 43.9999C91.5007 43.4855 91.3737 42.979 91.131 42.5255C90.8883 42.0719 90.5374 41.6853 90.1094 41.3999L80.7344 35.1499C80.393 34.9221 80.01 34.7639 79.6074 34.6841C79.2048 34.6043 78.7904 34.6047 78.3879 34.685C77.9854 34.7654 77.6027 34.9243 77.2617 35.1526C76.9206 35.3809 76.6278 35.6741 76.4 36.0155C76.1723 36.357 76.014 36.7399 75.9342 37.1425C75.8545 37.5451 75.8548 37.9595 75.9352 38.362C76.0975 39.1748 76.5761 39.8899 77.2656 40.3499L82.75 43.9999L77.275 47.6499C76.9328 47.8769 76.6387 48.1691 76.4094 48.5099C76.1802 48.8506 76.0204 49.2332 75.9392 49.6357C75.8579 50.0383 75.8568 50.4529 75.9358 50.8559C76.0149 51.2589 76.1727 51.6423 76.4 51.9843Z" fill="#303235"/>
<path d="M62.3874 56.3406C63.1736 56.6018 64.0312 56.5401 64.7719 56.1692C65.5126 55.7983 66.0757 55.1484 66.3374 54.3625L72.5875 35.6125C72.7171 35.2227 72.7688 34.8111 72.7394 34.4013C72.71 33.9914 72.6002 33.5914 72.4162 33.2241C72.2322 32.8567 71.9777 32.5292 71.6671 32.2601C71.3566 31.9911 70.9961 31.7859 70.6062 31.6563C70.2163 31.5266 69.8048 31.475 69.3949 31.5043C68.9851 31.5337 68.5851 31.6436 68.2177 31.8275C67.8504 32.0115 67.5228 32.266 67.2538 32.5766C66.9848 32.8872 66.7796 33.2477 66.6499 33.6375L60.3999 52.3875C60.2704 52.7776 60.219 53.1893 60.2488 53.5993C60.2786 54.0092 60.389 54.4092 60.5736 54.7764C60.7582 55.1436 61.0135 55.4708 61.3247 55.7392C61.636 56.0076 61.9971 56.212 62.3874 56.3406Z" fill="#303235"/>
<path d="M41.5 62.75H60.25V69H41.5V62.75Z" fill="#303235"/>
<path d="M66.5 62.75H72.75V69H66.5V62.75Z" fill="#303235"/>
<path d="M50.875 72.125H88.375V78.375H50.875V72.125Z" fill="#303235"/>
<path d="M107.125 72.125H129V78.375H107.125V72.125Z" fill="#303235"/>
<path d="M50.875 81.5H57.125V87.75H50.875V81.5Z" fill="#303235"/>
<path d="M63.375 81.5H100.875V87.75H63.375V81.5Z" fill="#303235"/>
<path d="M107.125 81.5H119.625V87.75H107.125V81.5Z" fill="#303235"/>
<path d="M94.625 72.125H100.875V78.375H94.625V72.125Z" fill="#303235"/>
<path d="M22.75 9.625H29V15.875H22.75V9.625Z" fill="#303235"/>
<path d="M35.25 9.625H41.5V15.875H35.25V9.625Z" fill="#303235"/>
<path d="M47.75 9.625H54V15.875H47.75V9.625Z" fill="#303235"/>
</svg>
