<svg width="25" height="25" viewBox="0 0 25 25" fill="none" xmlns="http://www.w3.org/2000/svg">
<g clip-path="url(#clip0)">
<path d="M17.299 14.835C20.3 10.5974 19.2963 4.72945 15.0587 1.72919C10.821 -1.27107 4.95313 -0.268117 1.95287 3.97025C-1.04739 8.2079 -0.0444383 14.0751 4.19393 17.0753C7.21856 19.2167 11.2175 19.3816 14.4077 17.4976L21.3395 24.3878C22.088 25.1757 23.3332 25.2072 24.1211 24.4588C24.909 23.7111 24.9405 22.4658 24.1928 21.6779C24.1692 21.6528 24.1462 21.6299 24.1211 21.6062L17.299 14.835ZM9.62021 15.4774C6.27153 15.4781 3.55659 12.7653 3.55444 9.4166C3.55373 6.06792 6.26651 3.35299 9.61591 3.35156C12.9603 3.35012 15.6738 6.0586 15.6802 9.40298C15.686 12.7524 12.9746 15.4716 9.62451 15.4774C9.62308 15.4774 9.62236 15.4774 9.62021 15.4774Z" fill="white"/>
</g>
<defs>
<clipPath id="clip0">
<rect width="25" height="25" fill="white"/>
</clipPath>
</defs>
</svg>
