<svg width="220" height="196" viewBox="0 0 220 196" fill="none" xmlns="http://www.w3.org/2000/svg">
<path d="M219.998 3.4902C219.998 1.71045 218.555 0.267578 216.775 0.267578H3.22262C1.44288 0.267578 0 1.71045 0 3.4902L0.00214842 152.792C0.00214842 154.572 1.44502 156.015 3.22477 156.015H75.4425V192.51C75.4425 194.289 76.8854 195.732 78.6651 195.732H141.793C143.573 195.732 145.016 194.289 145.016 192.51V46.569C145.016 44.7892 143.573 43.3463 141.793 43.3463H78.6651C76.8854 43.3463 75.4425 44.7892 75.4425 46.569V149.57H6.4474V23.3974H32.3126C34.0924 23.3974 35.5352 21.9546 35.5352 20.1748C35.5352 18.3951 34.0924 16.9522 32.3126 16.9522H6.44525V6.71283H193.143V16.9522H47.7683C45.9886 16.9522 44.5457 18.3951 44.5457 20.1748C44.5457 21.9546 45.9886 23.3974 47.7683 23.3974H213.554V149.57H157.084C155.304 149.57 153.861 151.013 153.861 152.793C153.861 154.572 155.304 156.015 157.084 156.015H216.777C218.557 156.015 220 154.572 220 152.793L219.998 3.4902ZM102.086 72.9352V64.7067C102.086 63.3073 103.225 62.1686 104.624 62.1686H116.075C117.474 62.1686 118.613 63.3073 118.613 64.7067V72.9352C118.613 77.4916 114.906 81.1984 110.35 81.1984C105.793 81.1984 102.086 77.4916 102.086 72.9352ZM126.911 87.6437C128.893 87.6437 130.759 88.4167 132.162 89.8174C133.564 91.2191 134.336 93.0839 134.336 95.0686V97.8083H126.91C125.13 97.8083 123.687 99.2511 123.687 101.031V117.186H97.0122V101.031C97.0122 99.2511 95.5693 97.8083 93.7896 97.8083H86.3655V95.0686C86.3655 90.9746 89.696 87.6441 93.79 87.6441H126.911V87.6437ZM134.334 117.186H130.132V104.254H134.334V117.186ZM86.3655 104.254H90.5669V117.186H86.3655V104.254ZM138.57 189.287H81.8877V123.631H138.57V189.287ZM138.57 49.7916V87.5513C138.04 86.7332 137.423 85.9628 136.717 85.2572C134.095 82.64 130.612 81.1984 126.912 81.1984H122.51C124.117 78.8416 125.058 75.9967 125.058 72.9352V64.7067C125.058 59.7534 121.028 55.7234 116.075 55.7234H104.624C99.6711 55.7234 95.6411 59.7534 95.6411 64.7067V72.9352C95.6411 75.9967 96.5821 78.8416 98.1887 81.1984H93.79C88.7403 81.1984 84.3137 83.9119 81.8877 87.9565V49.7916H138.57ZM213.553 16.9522H199.588V6.71283H213.553V16.9522Z" fill="#303235"/>
<path d="M58.4644 107.064C59.726 106.947 61.3712 105.689 61.3136 103.864V63.113C61.3136 61.3333 59.8708 59.8904 58.091 59.8904H23.2523C21.4725 59.8904 20.0297 61.3333 20.0297 63.113V103.864C20.0679 105.375 21.1627 107.061 23.2523 107.087H58.091C58.2173 107.087 58.3415 107.078 58.4644 107.064ZM54.8684 66.3361V93.1732C51.4962 89.5041 46.7594 86.1659 40.6716 86.1659C34.5839 86.1659 29.8471 89.5041 26.4749 93.1732V66.3361H54.8684ZM28.7673 100.642C29.2055 99.9983 29.6971 99.328 30.2402 98.6615C33.511 94.6466 37.0206 92.6108 40.6712 92.6108C46.0341 92.6108 50.1359 97.0494 52.5773 100.642H28.7673Z" fill="#303235"/>
<path d="M122.08 159.88L117.379 159.197L115.277 154.938C114.428 153.217 112.708 152.148 110.789 152.148C108.87 152.148 107.15 153.217 106.301 154.938L104.199 159.197L99.4984 159.88C97.5996 160.156 96.0514 161.461 95.4585 163.286C94.8655 165.112 95.351 167.078 96.7247 168.417L100.126 171.732L99.3231 176.414C98.9987 178.305 99.7618 180.181 101.314 181.309C102.867 182.437 104.887 182.583 106.585 181.69L110.789 179.48L114.993 181.69C115.732 182.078 116.532 182.27 117.327 182.27C118.36 182.27 119.387 181.947 120.264 181.309C121.817 180.181 122.58 178.306 122.255 176.414L121.452 171.732L124.854 168.417C126.228 167.077 126.713 165.111 126.12 163.286C125.527 161.461 123.979 160.156 122.08 159.88ZM116.412 167.645C114.561 169.449 114.815 172.325 115.41 174.627C112.31 172.659 109.205 172.652 106.169 174.627C107.078 171.207 106.059 168.071 103.313 165.838C107.009 165.637 109.456 163.86 110.789 160.407C111.656 162.61 113.138 165.094 115.703 165.466L118.265 165.838L116.412 167.645Z" fill="#303235"/>
<path d="M196.7 107.078C198.278 107.024 199.819 105.638 199.778 103.862V63.1147C199.778 61.335 198.335 59.8921 196.555 59.8921H161.719C159.939 59.8921 158.496 61.335 158.496 63.1147V103.862C158.472 105.481 159.903 107.134 161.717 107.087H196.556C196.605 107.087 196.652 107.08 196.7 107.078ZM193.333 66.3373V93.1719C189.96 89.5033 185.224 86.1655 179.137 86.1655C173.049 86.1655 168.313 89.5033 164.941 93.1715V66.3373H193.333ZM167.234 100.64C167.671 99.9974 168.163 99.3276 168.705 98.6616C171.976 94.6466 175.486 92.6108 179.136 92.6108C184.498 92.6108 188.6 97.0477 191.041 100.64H167.234Z" fill="#303235"/>
<path d="M40.6713 83.0594C42.4554 83.0594 43.9017 81.6131 43.9017 79.829C43.9017 78.0449 42.4554 76.5986 40.6713 76.5986C38.8872 76.5986 37.4409 78.0449 37.4409 79.829C37.4409 81.6131 38.8872 83.0594 40.6713 83.0594Z" fill="#303235"/>
<path d="M179.137 83.0594C180.921 83.0594 182.367 81.6131 182.367 79.829C182.367 78.0449 180.921 76.5986 179.137 76.5986C177.353 76.5986 175.906 78.0449 175.906 79.829C175.906 81.6131 177.353 83.0594 179.137 83.0594Z" fill="#303235"/>
<path d="M168.498 115.671C166.718 115.671 165.276 117.114 165.276 118.894C165.276 120.674 166.718 122.117 168.498 122.117H190.067C191.847 122.117 193.289 120.674 193.289 118.894C193.289 117.114 191.847 115.671 190.067 115.671H168.498Z" fill="#303235"/>
<path d="M30.5239 115.671C28.7442 115.671 27.3013 117.114 27.3013 118.894C27.3013 120.674 28.7442 122.117 30.5239 122.117H52.0925C53.8723 122.117 55.3152 120.674 55.3152 118.894C55.3152 117.114 53.8723 115.671 52.0925 115.671H30.5239Z" fill="#303235"/>
<path d="M132.663 30.3542C130.883 30.3542 129.44 31.7971 129.44 33.5769C129.44 35.3567 130.883 36.7996 132.663 36.7996H141.793C143.573 36.7996 145.016 35.3567 145.016 33.5769C145.016 31.7971 143.573 30.3542 141.793 30.3542H132.663Z" fill="#303235"/>
<path d="M78.6651 30.3542C76.8854 30.3542 75.4425 31.7971 75.4425 33.5769C75.4425 35.3566 76.8854 36.7995 78.6651 36.7995H117.216C118.996 36.7995 120.439 35.3566 120.439 33.5769C120.439 31.7971 118.996 30.3542 117.216 30.3542H78.6651Z" fill="#303235"/>
<path d="M126.91 140.931H93.7896C92.0098 140.931 90.5669 142.374 90.5669 144.153C90.5669 145.933 92.0098 147.376 93.7896 147.376H126.91C128.69 147.376 130.133 145.933 130.133 144.153C130.133 142.374 128.69 140.931 126.91 140.931Z" fill="#303235"/>
<path d="M101.954 135.751H118.746C120.526 135.751 121.968 134.308 121.968 132.528C121.968 130.749 120.526 129.306 118.746 129.306H101.954C100.174 129.306 98.731 130.749 98.731 132.528C98.731 134.308 100.174 135.751 101.954 135.751Z" fill="#303235"/>
</svg>
